<svg xmlns="http://www.w3.org/2000/svg" width="26" height="24" fill="none" viewBox="0 0 26 24">
  <path stroke="#333" stroke-linecap="round" stroke-linejoin="round" stroke-width="2" d="m3.28 16.376 1.677.257a2.4 2.4 0 0 1 2.032 2.548l-.124 1.693c-.036.493.233.958.678 1.172l1.241.598c.445.215.977.134 1.34-.2l1.247-1.152a2.4 2.4 0 0 1 3.258 0l1.247 1.152c.364.336.894.415 1.34.2l1.244-.599c.444-.213.711-.677.675-1.169l-.123-1.695a2.4 2.4 0 0 1 2.031-2.548l1.678-.257c.488-.074.882-.44.992-.922l.306-1.342a1.202 1.202 0 0 0-.493-1.261l-1.4-.959a2.4 2.4 0 0 1-.725-3.176l.846-1.472a1.205 1.205 0 0 0-.103-1.35l-.858-1.077a1.205 1.205 0 0 0-1.295-.401l-1.622.497a2.402 2.402 0 0 1-2.938-1.414l-.622-1.575a1.205 1.205 0 0 0-1.123-.762l-1.375.003c-.496.001-.94.306-1.12.768l-.606 1.558a2.4 2.4 0 0 1-2.942 1.423l-1.69-.518a1.205 1.205 0 0 0-1.298.403l-.852 1.077c-.308.39-.346.928-.095 1.356l.865 1.475a2.4 2.4 0 0 1-.714 3.195l-1.383.948c-.408.28-.604.78-.493 1.26l.306 1.342a1.2 1.2 0 0 0 .99.924v0Z" clip-rule="evenodd"/>
  <path stroke="#333" stroke-linecap="round" stroke-linejoin="round" stroke-width="2" d="M15.3 9.7a3.252 3.252 0 1 1-4.6 4.6 3.252 3.252 0 0 1 4.6-4.6"/>
</svg>
