<svg xmlns="http://www.w3.org/2000/svg" width="24" height="24" fill="none" viewBox="0 0 24 24">
  <path stroke="#333" stroke-linecap="round" stroke-linejoin="round" stroke-width="2" d="M13.768 10.232a2.5 2.5 0 1 1-3.536 3.536 2.5 2.5 0 0 1 3.536-3.536"/>
  <path stroke="#333" stroke-linecap="round" stroke-linejoin="round" stroke-width="2" d="m14.85 4.12.582.194c.534.178.895.678.895 1.241v.837c0 .712.568 1.293 1.28 1.308l.838.018c.485.01.925.289 1.142.723l.275.55a1.308 1.308 0 0 1-.245 1.51l-.592.592a1.309 1.309 0 0 0-.02 1.83l.58.606c.336.351.45.858.296 1.319l-.194.583a1.309 1.309 0 0 1-1.24.895h-.838c-.712 0-1.293.568-1.308 1.28l-.018.838c-.01.485-.289.925-.723 1.142l-.55.275a1.308 1.308 0 0 1-1.51-.245l-.592-.592a1.309 1.309 0 0 0-1.83-.02l-.606.58c-.35.336-.858.45-1.319.296l-.583-.194a1.309 1.309 0 0 1-.895-1.241v-.837c0-.712-.568-1.293-1.28-1.308l-.838-.018a1.308 1.308 0 0 1-1.142-.723l-.275-.55a1.308 1.308 0 0 1 .245-1.51l.592-.592a1.309 1.309 0 0 0 .02-1.83l-.58-.606a1.308 1.308 0 0 1-.297-1.32l.194-.583a1.309 1.309 0 0 1 1.241-.895h.837c.712 0 1.293-.568 1.308-1.28l.018-.838c.012-.485.29-.925.724-1.142l.55-.275a1.308 1.308 0 0 1 1.51.245l.592.592a1.309 1.309 0 0 0 1.83.02l.606-.58a1.31 1.31 0 0 1 1.32-.295v0Z" clip-rule="evenodd"/>
</svg>
