<svg xmlns="http://www.w3.org/2000/svg"  fill="none" viewBox="0 0 24 24">
  <path  stroke-linecap="round" stroke-linejoin="round" stroke-width="1.447" d="M5.127 10.045v-.172A6.873 6.873 0 0 1 12 3v0a6.873 6.873 0 0 1 6.873 6.873v.172c0 3.461-4.382 8.671-6.148 10.631a.973.973 0 0 1-1.45 0c-1.766-1.96-6.148-7.17-6.148-10.631Z" clip-rule="evenodd"/>
  <path  stroke-linecap="round" stroke-linejoin="round" stroke-width="1.447" d="M10 9.955a2 2 0 0 0 2 2v0a2 2 0 0 0 2-2v-.037a2 2 0 0 0-2-2v0a2 2 0 0 0-2 2"/>
</svg>
