<svg xmlns="http://www.w3.org/2000/svg" fill="none" viewBox="0 0 24 24">
  <path stroke-linecap="round" stroke-linejoin="round" stroke-width="1.588" d="M19.849 16.396A8.95 8.95 0 0 0 21 12a9 9 0 0 0-9-9 9 9 0 0 0-9 9 9 9 0 0 0 9 9 8.95 8.95 0 0 0 4.396-1.151L21 21l-1.151-4.604Z" clip-rule="evenodd"/>
  <path stroke-linecap="round" stroke-linejoin="round" stroke-width="1.5" d="M11.823 12.323a.25.25 0 1 1 .354.354.25.25 0 1 1-.354-.354m-4 0a.25.25 0 1 1 .354.354.25.25 0 1 1-.354-.354m8 0a.25.25 0 1 1 .354.354.25.25 0 1 1-.354-.354"/>
</svg>
