<svg xmlns="http://www.w3.org/2000/svg"  fill="none" viewBox="0 0 24 24">
  <path  stroke-linecap="round" stroke-linejoin="round" stroke-width="2" d="M9.25 19.613v.438A2.75 2.75 0 0 0 12 22.8v0a2.75 2.75 0 0 0 2.75-2.75v-.438M14.2 4.501V3.4A2.2 2.2 0 0 0 12 1.2v0a2.2 2.2 0 0 0-2.2 2.2v1.1"/>
  <path  stroke-linecap="round" stroke-linejoin="round" stroke-width="2" d="M5.475 9.826v0a5.437 5.437 0 0 1 5.438-5.438h2.175a5.437 5.437 0 0 1 5.437 5.438v3.356a2.4 2.4 0 0 0 .704 1.697l.769.769a2.4 2.4 0 0 1 .703 1.697v0a2.268 2.268 0 0 1-2.268 2.268H5.568A2.268 2.268 0 0 1 3.3 17.345v0a2.4 2.4 0 0 1 .703-1.697l.77-.77a2.4 2.4 0 0 0 .702-1.696V9.826Z" clip-rule="evenodd"/>
</svg>
