<svg xmlns="http://www.w3.org/2000/svg"  fill="none" viewBox="0 0 24 24">
  <path  stroke-linecap="round" stroke-linejoin="round" stroke-width="1.5" d="m8.05 17.85-1.052 3.154m8.952-3.154 1.052 3.154M11 13h2M7.999 4.997a4.943 4.943 0 0 1 3-1h2.002a4.943 4.943 0 0 1 3 1M6.098 7.998a4.714 4.714 0 0 0-.1 1v6.003a3.001 3.001 0 0 0 3 3.002H10a2 2 0 0 0 2-2.001 2 2 0 0 0 2.001 2h1a3.001 3.001 0 0 0 3.002-3V8.998a4.71 4.71 0 0 0-.1-1"/>
  <path  stroke-linecap="round" stroke-linejoin="round" stroke-width="1.5" d="M4.997 2.996h2a1 1 0 0 1 1.001 1v2.001a2 2 0 0 1-2 2.001v0a2 2 0 0 1-2.001-2V3.996a1 1 0 0 1 1-1Zm12.005 0h2.001a1 1 0 0 1 1 1v2.001a2 2 0 0 1-2 2.001v0a2 2 0 0 1-2.001-2V3.996a1 1 0 0 1 1-1Z" clip-rule="evenodd"/>
  <path  stroke-linecap="round" stroke-linejoin="round" stroke-width="1.5" d="M14.001 18.003v1a1.5 1.5 0 0 1-1.5 1.5h-1a1.5 1.5 0 0 1-1.501-1.5v-1M12 13v3.002M14.251 9.5a.25.25 0 1 1-.5-.001.25.25 0 0 1 .5 0M10.25 9.5a.25.25 0 1 1-.5-.001.25.25 0 0 1 .5 0"/>
</svg>
