<svg xmlns="http://www.w3.org/2000/svg"  fill="none" viewBox="0 0 24 24">
  <path  stroke-linecap="round" stroke-linejoin="round" stroke-width="1.5" d="M20.745 11c.166-.61.253-1.239.259-1.87a5.044 5.044 0 0 0-5.129-5.133A4.622 4.622 0 0 0 12 5.919a4.623 4.623 0 0 0-3.875-1.922 5.044 5.044 0 0 0-5.129 5.132 9.606 9.606 0 0 0 2.537 6.052 16.252 16.252 0 0 0 4.31 3.539 4.17 4.17 0 0 0 1.157.44"/>
  <path  stroke-linecap="round" stroke-linejoin="round" stroke-width="1.5" d="M17.752 17.002v0a3.001 3.001 0 0 1 3.002 3.001v0a1 1 0 0 1-1 1H15.75a1 1 0 0 1-1-1v0a3.001 3.001 0 0 1 3.001-3Z" clip-rule="evenodd"/>
  <path  stroke-linecap="round" stroke-linejoin="round" stroke-width="1.5" d="M18.003 14.001a.25.25 0 1 1-.5 0 .25.25 0 0 1 .5 0m3.001 1.001a.25.25 0 1 1-.5-.001.25.25 0 0 1 .5 0m-6.003.001a.25.25 0 1 1-.5-.001.25.25 0 0 1 .5 0"/>
</svg>
